G04 #@! TF.GenerationSoftware,KiCad,Pcbnew,(6.0.9)*
G04 #@! TF.CreationDate,2022-12-20T19:21:54-08:00*
G04 #@! TF.ProjectId,light_distribution,6c696768-745f-4646-9973-747269627574,rev?*
G04 #@! TF.SameCoordinates,Original*
G04 #@! TF.FileFunction,Copper,L1,Top*
G04 #@! TF.FilePolarity,Positive*
%FSLAX46Y46*%
G04 Gerber Fmt 4.6, Leading zero omitted, Abs format (unit mm)*
G04 Created by KiCad (PCBNEW (6.0.9)) date 2022-12-20 19:21:54*
%MOMM*%
%LPD*%
G01*
G04 APERTURE LIST*
G04 #@! TA.AperFunction,ComponentPad*
%ADD10C,2.145000*%
G04 #@! TD*
G04 APERTURE END LIST*
D10*
X121920000Y-106680000D03*
X127000000Y-106680000D03*
X121920000Y-86360000D03*
X127000000Y-86360000D03*
X162560000Y-99060000D03*
X162560000Y-93980000D03*
X121920000Y-96520000D03*
X127000000Y-96520000D03*
X134620000Y-101600000D03*
X139700000Y-101600000D03*
X134620000Y-111760000D03*
X139700000Y-111760000D03*
X134620000Y-91440000D03*
X139700000Y-91440000D03*
X134620000Y-81280000D03*
X139700000Y-81280000D03*
G04 #@! TA.AperFunction,Conductor*
G36*
X155484487Y-78740321D02*
G01*
X155533871Y-78743853D01*
X155755650Y-78759715D01*
X155773433Y-78762272D01*
X156034658Y-78819098D01*
X156051900Y-78824160D01*
X156302393Y-78917589D01*
X156318740Y-78925055D01*
X156553375Y-79053176D01*
X156568498Y-79062895D01*
X156782510Y-79223103D01*
X156796096Y-79234876D01*
X156985124Y-79423904D01*
X156996897Y-79437490D01*
X157157105Y-79651502D01*
X157166824Y-79666625D01*
X157182319Y-79695001D01*
X157277875Y-79869998D01*
X157294945Y-79901260D01*
X157302411Y-79917607D01*
X157331340Y-79995168D01*
X157395839Y-80168097D01*
X157400902Y-80185342D01*
X157457728Y-80446567D01*
X157460286Y-80464355D01*
X157479679Y-80735513D01*
X157480000Y-80744501D01*
X157480000Y-86360000D01*
X163095499Y-86360000D01*
X163104487Y-86360321D01*
X163141470Y-86362966D01*
X163375650Y-86379715D01*
X163393433Y-86382272D01*
X163654658Y-86439098D01*
X163671900Y-86444160D01*
X163922393Y-86537589D01*
X163938740Y-86545055D01*
X164173375Y-86673176D01*
X164188498Y-86682895D01*
X164402510Y-86843103D01*
X164416096Y-86854876D01*
X164605124Y-87043904D01*
X164616897Y-87057490D01*
X164777105Y-87271502D01*
X164786824Y-87286625D01*
X164914945Y-87521260D01*
X164922411Y-87537607D01*
X165015839Y-87788097D01*
X165020902Y-87805342D01*
X165077728Y-88066567D01*
X165080286Y-88084355D01*
X165099679Y-88355513D01*
X165100000Y-88364501D01*
X165100000Y-107215499D01*
X165099679Y-107224487D01*
X165080286Y-107495645D01*
X165077728Y-107513433D01*
X165058760Y-107600628D01*
X165020903Y-107774654D01*
X165015840Y-107791900D01*
X164922411Y-108042393D01*
X164914946Y-108058738D01*
X164895427Y-108094484D01*
X164786824Y-108293375D01*
X164777105Y-108308498D01*
X164616897Y-108522510D01*
X164605124Y-108536096D01*
X164416096Y-108725124D01*
X164402510Y-108736897D01*
X164188498Y-108897105D01*
X164173375Y-108906824D01*
X163938740Y-109034945D01*
X163922393Y-109042411D01*
X163671900Y-109135840D01*
X163654658Y-109140902D01*
X163393433Y-109197728D01*
X163375650Y-109200285D01*
X163153871Y-109216147D01*
X163104487Y-109219679D01*
X163095499Y-109220000D01*
X157480000Y-109220000D01*
X157480000Y-114835499D01*
X157479679Y-114844487D01*
X157460286Y-115115645D01*
X157457728Y-115133433D01*
X157400903Y-115394654D01*
X157395840Y-115411900D01*
X157302411Y-115662393D01*
X157294945Y-115678740D01*
X157166824Y-115913375D01*
X157157105Y-115928498D01*
X156996897Y-116142510D01*
X156985124Y-116156096D01*
X156796096Y-116345124D01*
X156782510Y-116356897D01*
X156568498Y-116517105D01*
X156553375Y-116526824D01*
X156318740Y-116654945D01*
X156302393Y-116662411D01*
X156051900Y-116755840D01*
X156034658Y-116760902D01*
X155773433Y-116817728D01*
X155755650Y-116820285D01*
X155533871Y-116836147D01*
X155484487Y-116839679D01*
X155475499Y-116840000D01*
X121384501Y-116840000D01*
X121375513Y-116839679D01*
X121326129Y-116836147D01*
X121104350Y-116820285D01*
X121086567Y-116817728D01*
X120825342Y-116760902D01*
X120808100Y-116755840D01*
X120557607Y-116662411D01*
X120541260Y-116654945D01*
X120306625Y-116526824D01*
X120291502Y-116517105D01*
X120077490Y-116356897D01*
X120063904Y-116345124D01*
X119874876Y-116156096D01*
X119863103Y-116142510D01*
X119702895Y-115928498D01*
X119693176Y-115913375D01*
X119565055Y-115678740D01*
X119557589Y-115662393D01*
X119464160Y-115411900D01*
X119459097Y-115394654D01*
X119402272Y-115133433D01*
X119399714Y-115115645D01*
X119380321Y-114844487D01*
X119380000Y-114835499D01*
X119380000Y-113045391D01*
X133699438Y-113045391D01*
X133705165Y-113053042D01*
X133896026Y-113170002D01*
X133904821Y-113174484D01*
X134125515Y-113265899D01*
X134134900Y-113268948D01*
X134367178Y-113324713D01*
X134376925Y-113326256D01*
X134615070Y-113344999D01*
X134624930Y-113344999D01*
X134863075Y-113326256D01*
X134872822Y-113324713D01*
X135105100Y-113268948D01*
X135114485Y-113265899D01*
X135335179Y-113174484D01*
X135343974Y-113170002D01*
X135531166Y-113055290D01*
X135540122Y-113045391D01*
X138779438Y-113045391D01*
X138785165Y-113053042D01*
X138976026Y-113170002D01*
X138984821Y-113174484D01*
X139205515Y-113265899D01*
X139214900Y-113268948D01*
X139447178Y-113324713D01*
X139456925Y-113326256D01*
X139695070Y-113344999D01*
X139704930Y-113344999D01*
X139943075Y-113326256D01*
X139952822Y-113324713D01*
X140185100Y-113268948D01*
X140194485Y-113265899D01*
X140415179Y-113174484D01*
X140423974Y-113170002D01*
X140611166Y-113055290D01*
X140620628Y-113044832D01*
X140616845Y-113036056D01*
X139712811Y-112132021D01*
X139698868Y-112124408D01*
X139697034Y-112124539D01*
X139690420Y-112128790D01*
X138786195Y-113033016D01*
X138779438Y-113045391D01*
X135540122Y-113045391D01*
X135540628Y-113044832D01*
X135536845Y-113036056D01*
X134632811Y-112132021D01*
X134618868Y-112124408D01*
X134617034Y-112124539D01*
X134610420Y-112128790D01*
X133706195Y-113033016D01*
X133699438Y-113045391D01*
X119380000Y-113045391D01*
X119380000Y-111764930D01*
X133035001Y-111764930D01*
X133053744Y-112003075D01*
X133055287Y-112012822D01*
X133111052Y-112245100D01*
X133114101Y-112254485D01*
X133205516Y-112475179D01*
X133209998Y-112483974D01*
X133324710Y-112671166D01*
X133335168Y-112680628D01*
X133343944Y-112676845D01*
X134247979Y-111772811D01*
X134254356Y-111761132D01*
X134984408Y-111761132D01*
X134984539Y-111762966D01*
X134988790Y-111769580D01*
X135893016Y-112673805D01*
X135905391Y-112680562D01*
X135913042Y-112674835D01*
X136030002Y-112483974D01*
X136034484Y-112475179D01*
X136125899Y-112254485D01*
X136128948Y-112245100D01*
X136184713Y-112012822D01*
X136186256Y-112003075D01*
X136204999Y-111764930D01*
X138115001Y-111764930D01*
X138133744Y-112003075D01*
X138135287Y-112012822D01*
X138191052Y-112245100D01*
X138194101Y-112254485D01*
X138285516Y-112475179D01*
X138289998Y-112483974D01*
X138404710Y-112671166D01*
X138415168Y-112680628D01*
X138423944Y-112676845D01*
X139327979Y-111772811D01*
X139334356Y-111761132D01*
X140064408Y-111761132D01*
X140064539Y-111762966D01*
X140068790Y-111769580D01*
X140973016Y-112673805D01*
X140985391Y-112680562D01*
X140993042Y-112674835D01*
X141110002Y-112483974D01*
X141114484Y-112475179D01*
X141205899Y-112254485D01*
X141208948Y-112245100D01*
X141264713Y-112012822D01*
X141266256Y-112003075D01*
X141284999Y-111764930D01*
X141284999Y-111755070D01*
X141266256Y-111516925D01*
X141264713Y-111507178D01*
X141208948Y-111274900D01*
X141205899Y-111265515D01*
X141114484Y-111044821D01*
X141110002Y-111036026D01*
X140995290Y-110848834D01*
X140984832Y-110839372D01*
X140976056Y-110843155D01*
X140072021Y-111747189D01*
X140064408Y-111761132D01*
X139334356Y-111761132D01*
X139335592Y-111758868D01*
X139335461Y-111757034D01*
X139331210Y-111750420D01*
X138426984Y-110846195D01*
X138414609Y-110839438D01*
X138406958Y-110845165D01*
X138289998Y-111036026D01*
X138285516Y-111044821D01*
X138194101Y-111265515D01*
X138191052Y-111274900D01*
X138135287Y-111507178D01*
X138133744Y-111516925D01*
X138115001Y-111755070D01*
X138115001Y-111764930D01*
X136204999Y-111764930D01*
X136204999Y-111755070D01*
X136186256Y-111516925D01*
X136184713Y-111507178D01*
X136128948Y-111274900D01*
X136125899Y-111265515D01*
X136034484Y-111044821D01*
X136030002Y-111036026D01*
X135915290Y-110848834D01*
X135904832Y-110839372D01*
X135896056Y-110843155D01*
X134992021Y-111747189D01*
X134984408Y-111761132D01*
X134254356Y-111761132D01*
X134255592Y-111758868D01*
X134255461Y-111757034D01*
X134251210Y-111750420D01*
X133346984Y-110846195D01*
X133334609Y-110839438D01*
X133326958Y-110845165D01*
X133209998Y-111036026D01*
X133205516Y-111044821D01*
X133114101Y-111265515D01*
X133111052Y-111274900D01*
X133055287Y-111507178D01*
X133053744Y-111516925D01*
X133035001Y-111755070D01*
X133035001Y-111764930D01*
X119380000Y-111764930D01*
X119380000Y-110475168D01*
X133699372Y-110475168D01*
X133703155Y-110483944D01*
X134607189Y-111387979D01*
X134621132Y-111395592D01*
X134622966Y-111395461D01*
X134629580Y-111391210D01*
X135533805Y-110486984D01*
X135540257Y-110475168D01*
X138779372Y-110475168D01*
X138783155Y-110483944D01*
X139687189Y-111387979D01*
X139701132Y-111395592D01*
X139702966Y-111395461D01*
X139709580Y-111391210D01*
X140613805Y-110486984D01*
X140620562Y-110474609D01*
X140614835Y-110466958D01*
X140423974Y-110349998D01*
X140415179Y-110345516D01*
X140194485Y-110254101D01*
X140185100Y-110251052D01*
X139952822Y-110195287D01*
X139943075Y-110193744D01*
X139704930Y-110175001D01*
X139695070Y-110175001D01*
X139456925Y-110193744D01*
X139447178Y-110195287D01*
X139214900Y-110251052D01*
X139205515Y-110254101D01*
X138984821Y-110345516D01*
X138976026Y-110349998D01*
X138788834Y-110464710D01*
X138779372Y-110475168D01*
X135540257Y-110475168D01*
X135540562Y-110474609D01*
X135534835Y-110466958D01*
X135343974Y-110349998D01*
X135335179Y-110345516D01*
X135114485Y-110254101D01*
X135105100Y-110251052D01*
X134872822Y-110195287D01*
X134863075Y-110193744D01*
X134624930Y-110175001D01*
X134615070Y-110175001D01*
X134376925Y-110193744D01*
X134367178Y-110195287D01*
X134134900Y-110251052D01*
X134125515Y-110254101D01*
X133904821Y-110345516D01*
X133896026Y-110349998D01*
X133708834Y-110464710D01*
X133699372Y-110475168D01*
X119380000Y-110475168D01*
X119380000Y-109220000D01*
X113764501Y-109220000D01*
X113755513Y-109219679D01*
X113706129Y-109216147D01*
X113484350Y-109200285D01*
X113466567Y-109197728D01*
X113205342Y-109140902D01*
X113188100Y-109135840D01*
X112937607Y-109042411D01*
X112921260Y-109034945D01*
X112686625Y-108906824D01*
X112671502Y-108897105D01*
X112457490Y-108736897D01*
X112443904Y-108725124D01*
X112254876Y-108536096D01*
X112243103Y-108522510D01*
X112082895Y-108308498D01*
X112073176Y-108293375D01*
X111964573Y-108094484D01*
X111945054Y-108058738D01*
X111937589Y-108042393D01*
X111908869Y-107965391D01*
X120999438Y-107965391D01*
X121005165Y-107973042D01*
X121196026Y-108090002D01*
X121204821Y-108094484D01*
X121425515Y-108185899D01*
X121434900Y-108188948D01*
X121667178Y-108244713D01*
X121676925Y-108246256D01*
X121915070Y-108264999D01*
X121924930Y-108264999D01*
X122163075Y-108246256D01*
X122172822Y-108244713D01*
X122405100Y-108188948D01*
X122414485Y-108185899D01*
X122635179Y-108094484D01*
X122643974Y-108090002D01*
X122831166Y-107975290D01*
X122840122Y-107965391D01*
X126079438Y-107965391D01*
X126085165Y-107973042D01*
X126276026Y-108090002D01*
X126284821Y-108094484D01*
X126505515Y-108185899D01*
X126514900Y-108188948D01*
X126747178Y-108244713D01*
X126756925Y-108246256D01*
X126995070Y-108264999D01*
X127004930Y-108264999D01*
X127243075Y-108246256D01*
X127252822Y-108244713D01*
X127485100Y-108188948D01*
X127494485Y-108185899D01*
X127715179Y-108094484D01*
X127723974Y-108090002D01*
X127911166Y-107975290D01*
X127920628Y-107964832D01*
X127916845Y-107956056D01*
X127012811Y-107052021D01*
X126998868Y-107044408D01*
X126997034Y-107044539D01*
X126990420Y-107048790D01*
X126086195Y-107953016D01*
X126079438Y-107965391D01*
X122840122Y-107965391D01*
X122840628Y-107964832D01*
X122836845Y-107956056D01*
X121932811Y-107052021D01*
X121918868Y-107044408D01*
X121917034Y-107044539D01*
X121910420Y-107048790D01*
X121006195Y-107953016D01*
X120999438Y-107965391D01*
X111908869Y-107965391D01*
X111844160Y-107791900D01*
X111839097Y-107774654D01*
X111801240Y-107600628D01*
X111782272Y-107513433D01*
X111779714Y-107495645D01*
X111760321Y-107224487D01*
X111760000Y-107215499D01*
X111760000Y-106684930D01*
X120335001Y-106684930D01*
X120353744Y-106923075D01*
X120355287Y-106932822D01*
X120411052Y-107165100D01*
X120414101Y-107174485D01*
X120505516Y-107395179D01*
X120509998Y-107403974D01*
X120624710Y-107591166D01*
X120635168Y-107600628D01*
X120643944Y-107596845D01*
X121547979Y-106692811D01*
X121554356Y-106681132D01*
X122284408Y-106681132D01*
X122284539Y-106682966D01*
X122288790Y-106689580D01*
X123193016Y-107593805D01*
X123205391Y-107600562D01*
X123213042Y-107594835D01*
X123330002Y-107403974D01*
X123334484Y-107395179D01*
X123425899Y-107174485D01*
X123428948Y-107165100D01*
X123484713Y-106932822D01*
X123486256Y-106923075D01*
X123504999Y-106684930D01*
X125415001Y-106684930D01*
X125433744Y-106923075D01*
X125435287Y-106932822D01*
X125491052Y-107165100D01*
X125494101Y-107174485D01*
X125585516Y-107395179D01*
X125589998Y-107403974D01*
X125704710Y-107591166D01*
X125715168Y-107600628D01*
X125723944Y-107596845D01*
X126627979Y-106692811D01*
X126634356Y-106681132D01*
X127364408Y-106681132D01*
X127364539Y-106682966D01*
X127368790Y-106689580D01*
X128273016Y-107593805D01*
X128285391Y-107600562D01*
X128293042Y-107594835D01*
X128410002Y-107403974D01*
X128414484Y-107395179D01*
X128505899Y-107174485D01*
X128508948Y-107165100D01*
X128564713Y-106932822D01*
X128566256Y-106923075D01*
X128584999Y-106684930D01*
X128584999Y-106675070D01*
X128566256Y-106436925D01*
X128564713Y-106427178D01*
X128508948Y-106194900D01*
X128505899Y-106185515D01*
X128414484Y-105964821D01*
X128410002Y-105956026D01*
X128295290Y-105768834D01*
X128284832Y-105759372D01*
X128276056Y-105763155D01*
X127372021Y-106667189D01*
X127364408Y-106681132D01*
X126634356Y-106681132D01*
X126635592Y-106678868D01*
X126635461Y-106677034D01*
X126631210Y-106670420D01*
X125726984Y-105766195D01*
X125714609Y-105759438D01*
X125706958Y-105765165D01*
X125589998Y-105956026D01*
X125585516Y-105964821D01*
X125494101Y-106185515D01*
X125491052Y-106194900D01*
X125435287Y-106427178D01*
X125433744Y-106436925D01*
X125415001Y-106675070D01*
X125415001Y-106684930D01*
X123504999Y-106684930D01*
X123504999Y-106675070D01*
X123486256Y-106436925D01*
X123484713Y-106427178D01*
X123428948Y-106194900D01*
X123425899Y-106185515D01*
X123334484Y-105964821D01*
X123330002Y-105956026D01*
X123215290Y-105768834D01*
X123204832Y-105759372D01*
X123196056Y-105763155D01*
X122292021Y-106667189D01*
X122284408Y-106681132D01*
X121554356Y-106681132D01*
X121555592Y-106678868D01*
X121555461Y-106677034D01*
X121551210Y-106670420D01*
X120646984Y-105766195D01*
X120634609Y-105759438D01*
X120626958Y-105765165D01*
X120509998Y-105956026D01*
X120505516Y-105964821D01*
X120414101Y-106185515D01*
X120411052Y-106194900D01*
X120355287Y-106427178D01*
X120353744Y-106436925D01*
X120335001Y-106675070D01*
X120335001Y-106684930D01*
X111760000Y-106684930D01*
X111760000Y-105395168D01*
X120999372Y-105395168D01*
X121003155Y-105403944D01*
X121907189Y-106307979D01*
X121921132Y-106315592D01*
X121922966Y-106315461D01*
X121929580Y-106311210D01*
X122833805Y-105406984D01*
X122840257Y-105395168D01*
X126079372Y-105395168D01*
X126083155Y-105403944D01*
X126987189Y-106307979D01*
X127001132Y-106315592D01*
X127002966Y-106315461D01*
X127009580Y-106311210D01*
X127913805Y-105406984D01*
X127920562Y-105394609D01*
X127914835Y-105386958D01*
X127723974Y-105269998D01*
X127715179Y-105265516D01*
X127494485Y-105174101D01*
X127485100Y-105171052D01*
X127252822Y-105115287D01*
X127243075Y-105113744D01*
X127004930Y-105095001D01*
X126995070Y-105095001D01*
X126756925Y-105113744D01*
X126747178Y-105115287D01*
X126514900Y-105171052D01*
X126505515Y-105174101D01*
X126284821Y-105265516D01*
X126276026Y-105269998D01*
X126088834Y-105384710D01*
X126079372Y-105395168D01*
X122840257Y-105395168D01*
X122840562Y-105394609D01*
X122834835Y-105386958D01*
X122643974Y-105269998D01*
X122635179Y-105265516D01*
X122414485Y-105174101D01*
X122405100Y-105171052D01*
X122172822Y-105115287D01*
X122163075Y-105113744D01*
X121924930Y-105095001D01*
X121915070Y-105095001D01*
X121676925Y-105113744D01*
X121667178Y-105115287D01*
X121434900Y-105171052D01*
X121425515Y-105174101D01*
X121204821Y-105265516D01*
X121196026Y-105269998D01*
X121008834Y-105384710D01*
X120999372Y-105395168D01*
X111760000Y-105395168D01*
X111760000Y-102885391D01*
X133699438Y-102885391D01*
X133705165Y-102893042D01*
X133896026Y-103010002D01*
X133904821Y-103014484D01*
X134125515Y-103105899D01*
X134134900Y-103108948D01*
X134367178Y-103164713D01*
X134376925Y-103166256D01*
X134615070Y-103184999D01*
X134624930Y-103184999D01*
X134863075Y-103166256D01*
X134872822Y-103164713D01*
X135105100Y-103108948D01*
X135114485Y-103105899D01*
X135335179Y-103014484D01*
X135343974Y-103010002D01*
X135531166Y-102895290D01*
X135540122Y-102885391D01*
X138779438Y-102885391D01*
X138785165Y-102893042D01*
X138976026Y-103010002D01*
X138984821Y-103014484D01*
X139205515Y-103105899D01*
X139214900Y-103108948D01*
X139447178Y-103164713D01*
X139456925Y-103166256D01*
X139695070Y-103184999D01*
X139704930Y-103184999D01*
X139943075Y-103166256D01*
X139952822Y-103164713D01*
X140185100Y-103108948D01*
X140194485Y-103105899D01*
X140415179Y-103014484D01*
X140423974Y-103010002D01*
X140611166Y-102895290D01*
X140620628Y-102884832D01*
X140616845Y-102876056D01*
X139712811Y-101972021D01*
X139698868Y-101964408D01*
X139697034Y-101964539D01*
X139690420Y-101968790D01*
X138786195Y-102873016D01*
X138779438Y-102885391D01*
X135540122Y-102885391D01*
X135540628Y-102884832D01*
X135536845Y-102876056D01*
X134632811Y-101972021D01*
X134618868Y-101964408D01*
X134617034Y-101964539D01*
X134610420Y-101968790D01*
X133706195Y-102873016D01*
X133699438Y-102885391D01*
X111760000Y-102885391D01*
X111760000Y-101604930D01*
X133035001Y-101604930D01*
X133053744Y-101843075D01*
X133055287Y-101852822D01*
X133111052Y-102085100D01*
X133114101Y-102094485D01*
X133205516Y-102315179D01*
X133209998Y-102323974D01*
X133324710Y-102511166D01*
X133335168Y-102520628D01*
X133343944Y-102516845D01*
X134247979Y-101612811D01*
X134254356Y-101601132D01*
X134984408Y-101601132D01*
X134984539Y-101602966D01*
X134988790Y-101609580D01*
X135893016Y-102513805D01*
X135905391Y-102520562D01*
X135913042Y-102514835D01*
X136030002Y-102323974D01*
X136034484Y-102315179D01*
X136125899Y-102094485D01*
X136128948Y-102085100D01*
X136184713Y-101852822D01*
X136186256Y-101843075D01*
X136204999Y-101604930D01*
X138115001Y-101604930D01*
X138133744Y-101843075D01*
X138135287Y-101852822D01*
X138191052Y-102085100D01*
X138194101Y-102094485D01*
X138285516Y-102315179D01*
X138289998Y-102323974D01*
X138404710Y-102511166D01*
X138415168Y-102520628D01*
X138423944Y-102516845D01*
X139327979Y-101612811D01*
X139334356Y-101601132D01*
X140064408Y-101601132D01*
X140064539Y-101602966D01*
X140068790Y-101609580D01*
X140973016Y-102513805D01*
X140985391Y-102520562D01*
X140993042Y-102514835D01*
X141110002Y-102323974D01*
X141114484Y-102315179D01*
X141205899Y-102094485D01*
X141208948Y-102085100D01*
X141264713Y-101852822D01*
X141266256Y-101843075D01*
X141284999Y-101604930D01*
X141284999Y-101595070D01*
X141266256Y-101356925D01*
X141264713Y-101347178D01*
X141208948Y-101114900D01*
X141205899Y-101105515D01*
X141114484Y-100884821D01*
X141110002Y-100876026D01*
X140995290Y-100688834D01*
X140984832Y-100679372D01*
X140976056Y-100683155D01*
X140072021Y-101587189D01*
X140064408Y-101601132D01*
X139334356Y-101601132D01*
X139335592Y-101598868D01*
X139335461Y-101597034D01*
X139331210Y-101590420D01*
X138426984Y-100686195D01*
X138414609Y-100679438D01*
X138406958Y-100685165D01*
X138289998Y-100876026D01*
X138285516Y-100884821D01*
X138194101Y-101105515D01*
X138191052Y-101114900D01*
X138135287Y-101347178D01*
X138133744Y-101356925D01*
X138115001Y-101595070D01*
X138115001Y-101604930D01*
X136204999Y-101604930D01*
X136204999Y-101595070D01*
X136186256Y-101356925D01*
X136184713Y-101347178D01*
X136128948Y-101114900D01*
X136125899Y-101105515D01*
X136034484Y-100884821D01*
X136030002Y-100876026D01*
X135915290Y-100688834D01*
X135904832Y-100679372D01*
X135896056Y-100683155D01*
X134992021Y-101587189D01*
X134984408Y-101601132D01*
X134254356Y-101601132D01*
X134255592Y-101598868D01*
X134255461Y-101597034D01*
X134251210Y-101590420D01*
X133346984Y-100686195D01*
X133334609Y-100679438D01*
X133326958Y-100685165D01*
X133209998Y-100876026D01*
X133205516Y-100884821D01*
X133114101Y-101105515D01*
X133111052Y-101114900D01*
X133055287Y-101347178D01*
X133053744Y-101356925D01*
X133035001Y-101595070D01*
X133035001Y-101604930D01*
X111760000Y-101604930D01*
X111760000Y-100315168D01*
X133699372Y-100315168D01*
X133703155Y-100323944D01*
X134607189Y-101227979D01*
X134621132Y-101235592D01*
X134622966Y-101235461D01*
X134629580Y-101231210D01*
X135533805Y-100326984D01*
X135540257Y-100315168D01*
X138779372Y-100315168D01*
X138783155Y-100323944D01*
X139687189Y-101227979D01*
X139701132Y-101235592D01*
X139702966Y-101235461D01*
X139709580Y-101231210D01*
X140595398Y-100345391D01*
X161639438Y-100345391D01*
X161645165Y-100353042D01*
X161836026Y-100470002D01*
X161844821Y-100474484D01*
X162065515Y-100565899D01*
X162074900Y-100568948D01*
X162307178Y-100624713D01*
X162316925Y-100626256D01*
X162555070Y-100644999D01*
X162564930Y-100644999D01*
X162803075Y-100626256D01*
X162812822Y-100624713D01*
X163045100Y-100568948D01*
X163054485Y-100565899D01*
X163275179Y-100474484D01*
X163283974Y-100470002D01*
X163471166Y-100355290D01*
X163480628Y-100344832D01*
X163476845Y-100336056D01*
X162572811Y-99432021D01*
X162558868Y-99424408D01*
X162557034Y-99424539D01*
X162550420Y-99428790D01*
X161646195Y-100333016D01*
X161639438Y-100345391D01*
X140595398Y-100345391D01*
X140613805Y-100326984D01*
X140620562Y-100314609D01*
X140614835Y-100306958D01*
X140423974Y-100189998D01*
X140415179Y-100185516D01*
X140194485Y-100094101D01*
X140185100Y-100091052D01*
X139952822Y-100035287D01*
X139943075Y-100033744D01*
X139704930Y-100015001D01*
X139695070Y-100015001D01*
X139456925Y-100033744D01*
X139447178Y-100035287D01*
X139214900Y-100091052D01*
X139205515Y-100094101D01*
X138984821Y-100185516D01*
X138976026Y-100189998D01*
X138788834Y-100304710D01*
X138779372Y-100315168D01*
X135540257Y-100315168D01*
X135540562Y-100314609D01*
X135534835Y-100306958D01*
X135343974Y-100189998D01*
X135335179Y-100185516D01*
X135114485Y-100094101D01*
X135105100Y-100091052D01*
X134872822Y-100035287D01*
X134863075Y-100033744D01*
X134624930Y-100015001D01*
X134615070Y-100015001D01*
X134376925Y-100033744D01*
X134367178Y-100035287D01*
X134134900Y-100091052D01*
X134125515Y-100094101D01*
X133904821Y-100185516D01*
X133896026Y-100189998D01*
X133708834Y-100304710D01*
X133699372Y-100315168D01*
X111760000Y-100315168D01*
X111760000Y-99064930D01*
X160975001Y-99064930D01*
X160993744Y-99303075D01*
X160995287Y-99312822D01*
X161051052Y-99545100D01*
X161054101Y-99554485D01*
X161145516Y-99775179D01*
X161149998Y-99783974D01*
X161264710Y-99971166D01*
X161275168Y-99980628D01*
X161283944Y-99976845D01*
X162187979Y-99072811D01*
X162194356Y-99061132D01*
X162924408Y-99061132D01*
X162924539Y-99062966D01*
X162928790Y-99069580D01*
X163833016Y-99973805D01*
X163845391Y-99980562D01*
X163853042Y-99974835D01*
X163970002Y-99783974D01*
X163974484Y-99775179D01*
X164065899Y-99554485D01*
X164068948Y-99545100D01*
X164124713Y-99312822D01*
X164126256Y-99303075D01*
X164144999Y-99064930D01*
X164144999Y-99055070D01*
X164126256Y-98816925D01*
X164124713Y-98807178D01*
X164068948Y-98574900D01*
X164065899Y-98565515D01*
X163974484Y-98344821D01*
X163970002Y-98336026D01*
X163855290Y-98148834D01*
X163844832Y-98139372D01*
X163836056Y-98143155D01*
X162932021Y-99047189D01*
X162924408Y-99061132D01*
X162194356Y-99061132D01*
X162195592Y-99058868D01*
X162195461Y-99057034D01*
X162191210Y-99050420D01*
X161286984Y-98146195D01*
X161274609Y-98139438D01*
X161266958Y-98145165D01*
X161149998Y-98336026D01*
X161145516Y-98344821D01*
X161054101Y-98565515D01*
X161051052Y-98574900D01*
X160995287Y-98807178D01*
X160993744Y-98816925D01*
X160975001Y-99055070D01*
X160975001Y-99064930D01*
X111760000Y-99064930D01*
X111760000Y-97805391D01*
X120999438Y-97805391D01*
X121005165Y-97813042D01*
X121196026Y-97930002D01*
X121204821Y-97934484D01*
X121425515Y-98025899D01*
X121434900Y-98028948D01*
X121667178Y-98084713D01*
X121676925Y-98086256D01*
X121915070Y-98104999D01*
X121924930Y-98104999D01*
X122163075Y-98086256D01*
X122172822Y-98084713D01*
X122405100Y-98028948D01*
X122414485Y-98025899D01*
X122635179Y-97934484D01*
X122643974Y-97930002D01*
X122831166Y-97815290D01*
X122840122Y-97805391D01*
X126079438Y-97805391D01*
X126085165Y-97813042D01*
X126276026Y-97930002D01*
X126284821Y-97934484D01*
X126505515Y-98025899D01*
X126514900Y-98028948D01*
X126747178Y-98084713D01*
X126756925Y-98086256D01*
X126995070Y-98104999D01*
X127004930Y-98104999D01*
X127243075Y-98086256D01*
X127252822Y-98084713D01*
X127485100Y-98028948D01*
X127494485Y-98025899D01*
X127715179Y-97934484D01*
X127723974Y-97930002D01*
X127911166Y-97815290D01*
X127920628Y-97804832D01*
X127916845Y-97796056D01*
X127895957Y-97775168D01*
X161639372Y-97775168D01*
X161643155Y-97783944D01*
X162547189Y-98687979D01*
X162561132Y-98695592D01*
X162562966Y-98695461D01*
X162569580Y-98691210D01*
X163473805Y-97786984D01*
X163480562Y-97774609D01*
X163474835Y-97766958D01*
X163283974Y-97649998D01*
X163275179Y-97645516D01*
X163054485Y-97554101D01*
X163045100Y-97551052D01*
X162812822Y-97495287D01*
X162803075Y-97493744D01*
X162564930Y-97475001D01*
X162555070Y-97475001D01*
X162316925Y-97493744D01*
X162307178Y-97495287D01*
X162074900Y-97551052D01*
X162065515Y-97554101D01*
X161844821Y-97645516D01*
X161836026Y-97649998D01*
X161648834Y-97764710D01*
X161639372Y-97775168D01*
X127895957Y-97775168D01*
X127012811Y-96892021D01*
X126998868Y-96884408D01*
X126997034Y-96884539D01*
X126990420Y-96888790D01*
X126086195Y-97793016D01*
X126079438Y-97805391D01*
X122840122Y-97805391D01*
X122840628Y-97804832D01*
X122836845Y-97796056D01*
X121932811Y-96892021D01*
X121918868Y-96884408D01*
X121917034Y-96884539D01*
X121910420Y-96888790D01*
X121006195Y-97793016D01*
X120999438Y-97805391D01*
X111760000Y-97805391D01*
X111760000Y-96524930D01*
X120335001Y-96524930D01*
X120353744Y-96763075D01*
X120355287Y-96772822D01*
X120411052Y-97005100D01*
X120414101Y-97014485D01*
X120505516Y-97235179D01*
X120509998Y-97243974D01*
X120624710Y-97431166D01*
X120635168Y-97440628D01*
X120643944Y-97436845D01*
X121547979Y-96532811D01*
X121554356Y-96521132D01*
X122284408Y-96521132D01*
X122284539Y-96522966D01*
X122288790Y-96529580D01*
X123193016Y-97433805D01*
X123205391Y-97440562D01*
X123213042Y-97434835D01*
X123330002Y-97243974D01*
X123334484Y-97235179D01*
X123425899Y-97014485D01*
X123428948Y-97005100D01*
X123484713Y-96772822D01*
X123486256Y-96763075D01*
X123504999Y-96524930D01*
X125415001Y-96524930D01*
X125433744Y-96763075D01*
X125435287Y-96772822D01*
X125491052Y-97005100D01*
X125494101Y-97014485D01*
X125585516Y-97235179D01*
X125589998Y-97243974D01*
X125704710Y-97431166D01*
X125715168Y-97440628D01*
X125723944Y-97436845D01*
X126627979Y-96532811D01*
X126634356Y-96521132D01*
X127364408Y-96521132D01*
X127364539Y-96522966D01*
X127368790Y-96529580D01*
X128273016Y-97433805D01*
X128285391Y-97440562D01*
X128293042Y-97434835D01*
X128410002Y-97243974D01*
X128414484Y-97235179D01*
X128505899Y-97014485D01*
X128508948Y-97005100D01*
X128564713Y-96772822D01*
X128566256Y-96763075D01*
X128584999Y-96524930D01*
X128584999Y-96515070D01*
X128566256Y-96276925D01*
X128564713Y-96267178D01*
X128508948Y-96034900D01*
X128505899Y-96025515D01*
X128414484Y-95804821D01*
X128410002Y-95796026D01*
X128295290Y-95608834D01*
X128284832Y-95599372D01*
X128276056Y-95603155D01*
X127372021Y-96507189D01*
X127364408Y-96521132D01*
X126634356Y-96521132D01*
X126635592Y-96518868D01*
X126635461Y-96517034D01*
X126631210Y-96510420D01*
X125726984Y-95606195D01*
X125714609Y-95599438D01*
X125706958Y-95605165D01*
X125589998Y-95796026D01*
X125585516Y-95804821D01*
X125494101Y-96025515D01*
X125491052Y-96034900D01*
X125435287Y-96267178D01*
X125433744Y-96276925D01*
X125415001Y-96515070D01*
X125415001Y-96524930D01*
X123504999Y-96524930D01*
X123504999Y-96515070D01*
X123486256Y-96276925D01*
X123484713Y-96267178D01*
X123428948Y-96034900D01*
X123425899Y-96025515D01*
X123334484Y-95804821D01*
X123330002Y-95796026D01*
X123215290Y-95608834D01*
X123204832Y-95599372D01*
X123196056Y-95603155D01*
X122292021Y-96507189D01*
X122284408Y-96521132D01*
X121554356Y-96521132D01*
X121555592Y-96518868D01*
X121555461Y-96517034D01*
X121551210Y-96510420D01*
X120646984Y-95606195D01*
X120634609Y-95599438D01*
X120626958Y-95605165D01*
X120509998Y-95796026D01*
X120505516Y-95804821D01*
X120414101Y-96025515D01*
X120411052Y-96034900D01*
X120355287Y-96267178D01*
X120353744Y-96276925D01*
X120335001Y-96515070D01*
X120335001Y-96524930D01*
X111760000Y-96524930D01*
X111760000Y-95235168D01*
X120999372Y-95235168D01*
X121003155Y-95243944D01*
X121907189Y-96147979D01*
X121921132Y-96155592D01*
X121922966Y-96155461D01*
X121929580Y-96151210D01*
X122833805Y-95246984D01*
X122840257Y-95235168D01*
X126079372Y-95235168D01*
X126083155Y-95243944D01*
X126987189Y-96147979D01*
X127001132Y-96155592D01*
X127002966Y-96155461D01*
X127009580Y-96151210D01*
X127895398Y-95265391D01*
X161639438Y-95265391D01*
X161645165Y-95273042D01*
X161836026Y-95390002D01*
X161844821Y-95394484D01*
X162065515Y-95485899D01*
X162074900Y-95488948D01*
X162307178Y-95544713D01*
X162316925Y-95546256D01*
X162555070Y-95564999D01*
X162564930Y-95564999D01*
X162803075Y-95546256D01*
X162812822Y-95544713D01*
X163045100Y-95488948D01*
X163054485Y-95485899D01*
X163275179Y-95394484D01*
X163283974Y-95390002D01*
X163471166Y-95275290D01*
X163480628Y-95264832D01*
X163476845Y-95256056D01*
X162572811Y-94352021D01*
X162558868Y-94344408D01*
X162557034Y-94344539D01*
X162550420Y-94348790D01*
X161646195Y-95253016D01*
X161639438Y-95265391D01*
X127895398Y-95265391D01*
X127913805Y-95246984D01*
X127920562Y-95234609D01*
X127914835Y-95226958D01*
X127723974Y-95109998D01*
X127715179Y-95105516D01*
X127494485Y-95014101D01*
X127485100Y-95011052D01*
X127252822Y-94955287D01*
X127243075Y-94953744D01*
X127004930Y-94935001D01*
X126995070Y-94935001D01*
X126756925Y-94953744D01*
X126747178Y-94955287D01*
X126514900Y-95011052D01*
X126505515Y-95014101D01*
X126284821Y-95105516D01*
X126276026Y-95109998D01*
X126088834Y-95224710D01*
X126079372Y-95235168D01*
X122840257Y-95235168D01*
X122840562Y-95234609D01*
X122834835Y-95226958D01*
X122643974Y-95109998D01*
X122635179Y-95105516D01*
X122414485Y-95014101D01*
X122405100Y-95011052D01*
X122172822Y-94955287D01*
X122163075Y-94953744D01*
X121924930Y-94935001D01*
X121915070Y-94935001D01*
X121676925Y-94953744D01*
X121667178Y-94955287D01*
X121434900Y-95011052D01*
X121425515Y-95014101D01*
X121204821Y-95105516D01*
X121196026Y-95109998D01*
X121008834Y-95224710D01*
X120999372Y-95235168D01*
X111760000Y-95235168D01*
X111760000Y-93984930D01*
X160975001Y-93984930D01*
X160993744Y-94223075D01*
X160995287Y-94232822D01*
X161051052Y-94465100D01*
X161054101Y-94474485D01*
X161145516Y-94695179D01*
X161149998Y-94703974D01*
X161264710Y-94891166D01*
X161275168Y-94900628D01*
X161283944Y-94896845D01*
X162187979Y-93992811D01*
X162194356Y-93981132D01*
X162924408Y-93981132D01*
X162924539Y-93982966D01*
X162928790Y-93989580D01*
X163833016Y-94893805D01*
X163845391Y-94900562D01*
X163853042Y-94894835D01*
X163970002Y-94703974D01*
X163974484Y-94695179D01*
X164065899Y-94474485D01*
X164068948Y-94465100D01*
X164124713Y-94232822D01*
X164126256Y-94223075D01*
X164144999Y-93984930D01*
X164144999Y-93975070D01*
X164126256Y-93736925D01*
X164124713Y-93727178D01*
X164068948Y-93494900D01*
X164065899Y-93485515D01*
X163974484Y-93264821D01*
X163970002Y-93256026D01*
X163855290Y-93068834D01*
X163844832Y-93059372D01*
X163836056Y-93063155D01*
X162932021Y-93967189D01*
X162924408Y-93981132D01*
X162194356Y-93981132D01*
X162195592Y-93978868D01*
X162195461Y-93977034D01*
X162191210Y-93970420D01*
X161286984Y-93066195D01*
X161274609Y-93059438D01*
X161266958Y-93065165D01*
X161149998Y-93256026D01*
X161145516Y-93264821D01*
X161054101Y-93485515D01*
X161051052Y-93494900D01*
X160995287Y-93727178D01*
X160993744Y-93736925D01*
X160975001Y-93975070D01*
X160975001Y-93984930D01*
X111760000Y-93984930D01*
X111760000Y-92725391D01*
X133699438Y-92725391D01*
X133705165Y-92733042D01*
X133896026Y-92850002D01*
X133904821Y-92854484D01*
X134125515Y-92945899D01*
X134134900Y-92948948D01*
X134367178Y-93004713D01*
X134376925Y-93006256D01*
X134615070Y-93024999D01*
X134624930Y-93024999D01*
X134863075Y-93006256D01*
X134872822Y-93004713D01*
X135105100Y-92948948D01*
X135114485Y-92945899D01*
X135335179Y-92854484D01*
X135343974Y-92850002D01*
X135531166Y-92735290D01*
X135540122Y-92725391D01*
X138779438Y-92725391D01*
X138785165Y-92733042D01*
X138976026Y-92850002D01*
X138984821Y-92854484D01*
X139205515Y-92945899D01*
X139214900Y-92948948D01*
X139447178Y-93004713D01*
X139456925Y-93006256D01*
X139695070Y-93024999D01*
X139704930Y-93024999D01*
X139943075Y-93006256D01*
X139952822Y-93004713D01*
X140185100Y-92948948D01*
X140194485Y-92945899D01*
X140415179Y-92854484D01*
X140423974Y-92850002D01*
X140611166Y-92735290D01*
X140620628Y-92724832D01*
X140616845Y-92716056D01*
X140595957Y-92695168D01*
X161639372Y-92695168D01*
X161643155Y-92703944D01*
X162547189Y-93607979D01*
X162561132Y-93615592D01*
X162562966Y-93615461D01*
X162569580Y-93611210D01*
X163473805Y-92706984D01*
X163480562Y-92694609D01*
X163474835Y-92686958D01*
X163283974Y-92569998D01*
X163275179Y-92565516D01*
X163054485Y-92474101D01*
X163045100Y-92471052D01*
X162812822Y-92415287D01*
X162803075Y-92413744D01*
X162564930Y-92395001D01*
X162555070Y-92395001D01*
X162316925Y-92413744D01*
X162307178Y-92415287D01*
X162074900Y-92471052D01*
X162065515Y-92474101D01*
X161844821Y-92565516D01*
X161836026Y-92569998D01*
X161648834Y-92684710D01*
X161639372Y-92695168D01*
X140595957Y-92695168D01*
X139712811Y-91812021D01*
X139698868Y-91804408D01*
X139697034Y-91804539D01*
X139690420Y-91808790D01*
X138786195Y-92713016D01*
X138779438Y-92725391D01*
X135540122Y-92725391D01*
X135540628Y-92724832D01*
X135536845Y-92716056D01*
X134632811Y-91812021D01*
X134618868Y-91804408D01*
X134617034Y-91804539D01*
X134610420Y-91808790D01*
X133706195Y-92713016D01*
X133699438Y-92725391D01*
X111760000Y-92725391D01*
X111760000Y-91444930D01*
X133035001Y-91444930D01*
X133053744Y-91683075D01*
X133055287Y-91692822D01*
X133111052Y-91925100D01*
X133114101Y-91934485D01*
X133205516Y-92155179D01*
X133209998Y-92163974D01*
X133324710Y-92351166D01*
X133335168Y-92360628D01*
X133343944Y-92356845D01*
X134247979Y-91452811D01*
X134254356Y-91441132D01*
X134984408Y-91441132D01*
X134984539Y-91442966D01*
X134988790Y-91449580D01*
X135893016Y-92353805D01*
X135905391Y-92360562D01*
X135913042Y-92354835D01*
X136030002Y-92163974D01*
X136034484Y-92155179D01*
X136125899Y-91934485D01*
X136128948Y-91925100D01*
X136184713Y-91692822D01*
X136186256Y-91683075D01*
X136204999Y-91444930D01*
X138115001Y-91444930D01*
X138133744Y-91683075D01*
X138135287Y-91692822D01*
X138191052Y-91925100D01*
X138194101Y-91934485D01*
X138285516Y-92155179D01*
X138289998Y-92163974D01*
X138404710Y-92351166D01*
X138415168Y-92360628D01*
X138423944Y-92356845D01*
X139327979Y-91452811D01*
X139334356Y-91441132D01*
X140064408Y-91441132D01*
X140064539Y-91442966D01*
X140068790Y-91449580D01*
X140973016Y-92353805D01*
X140985391Y-92360562D01*
X140993042Y-92354835D01*
X141110002Y-92163974D01*
X141114484Y-92155179D01*
X141205899Y-91934485D01*
X141208948Y-91925100D01*
X141264713Y-91692822D01*
X141266256Y-91683075D01*
X141284999Y-91444930D01*
X141284999Y-91435070D01*
X141266256Y-91196925D01*
X141264713Y-91187178D01*
X141208948Y-90954900D01*
X141205899Y-90945515D01*
X141114484Y-90724821D01*
X141110002Y-90716026D01*
X140995290Y-90528834D01*
X140984832Y-90519372D01*
X140976056Y-90523155D01*
X140072021Y-91427189D01*
X140064408Y-91441132D01*
X139334356Y-91441132D01*
X139335592Y-91438868D01*
X139335461Y-91437034D01*
X139331210Y-91430420D01*
X138426984Y-90526195D01*
X138414609Y-90519438D01*
X138406958Y-90525165D01*
X138289998Y-90716026D01*
X138285516Y-90724821D01*
X138194101Y-90945515D01*
X138191052Y-90954900D01*
X138135287Y-91187178D01*
X138133744Y-91196925D01*
X138115001Y-91435070D01*
X138115001Y-91444930D01*
X136204999Y-91444930D01*
X136204999Y-91435070D01*
X136186256Y-91196925D01*
X136184713Y-91187178D01*
X136128948Y-90954900D01*
X136125899Y-90945515D01*
X136034484Y-90724821D01*
X136030002Y-90716026D01*
X135915290Y-90528834D01*
X135904832Y-90519372D01*
X135896056Y-90523155D01*
X134992021Y-91427189D01*
X134984408Y-91441132D01*
X134254356Y-91441132D01*
X134255592Y-91438868D01*
X134255461Y-91437034D01*
X134251210Y-91430420D01*
X133346984Y-90526195D01*
X133334609Y-90519438D01*
X133326958Y-90525165D01*
X133209998Y-90716026D01*
X133205516Y-90724821D01*
X133114101Y-90945515D01*
X133111052Y-90954900D01*
X133055287Y-91187178D01*
X133053744Y-91196925D01*
X133035001Y-91435070D01*
X133035001Y-91444930D01*
X111760000Y-91444930D01*
X111760000Y-90155168D01*
X133699372Y-90155168D01*
X133703155Y-90163944D01*
X134607189Y-91067979D01*
X134621132Y-91075592D01*
X134622966Y-91075461D01*
X134629580Y-91071210D01*
X135533805Y-90166984D01*
X135540257Y-90155168D01*
X138779372Y-90155168D01*
X138783155Y-90163944D01*
X139687189Y-91067979D01*
X139701132Y-91075592D01*
X139702966Y-91075461D01*
X139709580Y-91071210D01*
X140613805Y-90166984D01*
X140620562Y-90154609D01*
X140614835Y-90146958D01*
X140423974Y-90029998D01*
X140415179Y-90025516D01*
X140194485Y-89934101D01*
X140185100Y-89931052D01*
X139952822Y-89875287D01*
X139943075Y-89873744D01*
X139704930Y-89855001D01*
X139695070Y-89855001D01*
X139456925Y-89873744D01*
X139447178Y-89875287D01*
X139214900Y-89931052D01*
X139205515Y-89934101D01*
X138984821Y-90025516D01*
X138976026Y-90029998D01*
X138788834Y-90144710D01*
X138779372Y-90155168D01*
X135540257Y-90155168D01*
X135540562Y-90154609D01*
X135534835Y-90146958D01*
X135343974Y-90029998D01*
X135335179Y-90025516D01*
X135114485Y-89934101D01*
X135105100Y-89931052D01*
X134872822Y-89875287D01*
X134863075Y-89873744D01*
X134624930Y-89855001D01*
X134615070Y-89855001D01*
X134376925Y-89873744D01*
X134367178Y-89875287D01*
X134134900Y-89931052D01*
X134125515Y-89934101D01*
X133904821Y-90025516D01*
X133896026Y-90029998D01*
X133708834Y-90144710D01*
X133699372Y-90155168D01*
X111760000Y-90155168D01*
X111760000Y-88364501D01*
X111760321Y-88355513D01*
X111779714Y-88084355D01*
X111782272Y-88066567D01*
X111839098Y-87805342D01*
X111844161Y-87788097D01*
X111897388Y-87645391D01*
X120999438Y-87645391D01*
X121005165Y-87653042D01*
X121196026Y-87770002D01*
X121204821Y-87774484D01*
X121425515Y-87865899D01*
X121434900Y-87868948D01*
X121667178Y-87924713D01*
X121676925Y-87926256D01*
X121915070Y-87944999D01*
X121924930Y-87944999D01*
X122163075Y-87926256D01*
X122172822Y-87924713D01*
X122405100Y-87868948D01*
X122414485Y-87865899D01*
X122635179Y-87774484D01*
X122643974Y-87770002D01*
X122831166Y-87655290D01*
X122840122Y-87645391D01*
X126079438Y-87645391D01*
X126085165Y-87653042D01*
X126276026Y-87770002D01*
X126284821Y-87774484D01*
X126505515Y-87865899D01*
X126514900Y-87868948D01*
X126747178Y-87924713D01*
X126756925Y-87926256D01*
X126995070Y-87944999D01*
X127004930Y-87944999D01*
X127243075Y-87926256D01*
X127252822Y-87924713D01*
X127485100Y-87868948D01*
X127494485Y-87865899D01*
X127715179Y-87774484D01*
X127723974Y-87770002D01*
X127911166Y-87655290D01*
X127920628Y-87644832D01*
X127916845Y-87636056D01*
X127012811Y-86732021D01*
X126998868Y-86724408D01*
X126997034Y-86724539D01*
X126990420Y-86728790D01*
X126086195Y-87633016D01*
X126079438Y-87645391D01*
X122840122Y-87645391D01*
X122840628Y-87644832D01*
X122836845Y-87636056D01*
X121932811Y-86732021D01*
X121918868Y-86724408D01*
X121917034Y-86724539D01*
X121910420Y-86728790D01*
X121006195Y-87633016D01*
X120999438Y-87645391D01*
X111897388Y-87645391D01*
X111937589Y-87537607D01*
X111945055Y-87521260D01*
X112073176Y-87286625D01*
X112082895Y-87271502D01*
X112243103Y-87057490D01*
X112254876Y-87043904D01*
X112443904Y-86854876D01*
X112457490Y-86843103D01*
X112671502Y-86682895D01*
X112686625Y-86673176D01*
X112921260Y-86545055D01*
X112937607Y-86537589D01*
X113188100Y-86444160D01*
X113205342Y-86439098D01*
X113466567Y-86382272D01*
X113484350Y-86379715D01*
X113691070Y-86364930D01*
X120335001Y-86364930D01*
X120353744Y-86603075D01*
X120355287Y-86612822D01*
X120411052Y-86845100D01*
X120414101Y-86854485D01*
X120505516Y-87075179D01*
X120509998Y-87083974D01*
X120624710Y-87271166D01*
X120635168Y-87280628D01*
X120643944Y-87276845D01*
X121547979Y-86372811D01*
X121554356Y-86361132D01*
X122284408Y-86361132D01*
X122284539Y-86362966D01*
X122288790Y-86369580D01*
X123193016Y-87273805D01*
X123205391Y-87280562D01*
X123213042Y-87274835D01*
X123330002Y-87083974D01*
X123334484Y-87075179D01*
X123425899Y-86854485D01*
X123428948Y-86845100D01*
X123484713Y-86612822D01*
X123486256Y-86603075D01*
X123504999Y-86364930D01*
X125415001Y-86364930D01*
X125433744Y-86603075D01*
X125435287Y-86612822D01*
X125491052Y-86845100D01*
X125494101Y-86854485D01*
X125585516Y-87075179D01*
X125589998Y-87083974D01*
X125704710Y-87271166D01*
X125715168Y-87280628D01*
X125723944Y-87276845D01*
X126627979Y-86372811D01*
X126634356Y-86361132D01*
X127364408Y-86361132D01*
X127364539Y-86362966D01*
X127368790Y-86369580D01*
X128273016Y-87273805D01*
X128285391Y-87280562D01*
X128293042Y-87274835D01*
X128410002Y-87083974D01*
X128414484Y-87075179D01*
X128505899Y-86854485D01*
X128508948Y-86845100D01*
X128564713Y-86612822D01*
X128566256Y-86603075D01*
X128584999Y-86364930D01*
X128584999Y-86355070D01*
X128566256Y-86116925D01*
X128564713Y-86107178D01*
X128508948Y-85874900D01*
X128505899Y-85865515D01*
X128414484Y-85644821D01*
X128410002Y-85636026D01*
X128295290Y-85448834D01*
X128284832Y-85439372D01*
X128276056Y-85443155D01*
X127372021Y-86347189D01*
X127364408Y-86361132D01*
X126634356Y-86361132D01*
X126635592Y-86358868D01*
X126635461Y-86357034D01*
X126631210Y-86350420D01*
X125726984Y-85446195D01*
X125714609Y-85439438D01*
X125706958Y-85445165D01*
X125589998Y-85636026D01*
X125585516Y-85644821D01*
X125494101Y-85865515D01*
X125491052Y-85874900D01*
X125435287Y-86107178D01*
X125433744Y-86116925D01*
X125415001Y-86355070D01*
X125415001Y-86364930D01*
X123504999Y-86364930D01*
X123504999Y-86355070D01*
X123486256Y-86116925D01*
X123484713Y-86107178D01*
X123428948Y-85874900D01*
X123425899Y-85865515D01*
X123334484Y-85644821D01*
X123330002Y-85636026D01*
X123215290Y-85448834D01*
X123204832Y-85439372D01*
X123196056Y-85443155D01*
X122292021Y-86347189D01*
X122284408Y-86361132D01*
X121554356Y-86361132D01*
X121555592Y-86358868D01*
X121555461Y-86357034D01*
X121551210Y-86350420D01*
X120646984Y-85446195D01*
X120634609Y-85439438D01*
X120626958Y-85445165D01*
X120509998Y-85636026D01*
X120505516Y-85644821D01*
X120414101Y-85865515D01*
X120411052Y-85874900D01*
X120355287Y-86107178D01*
X120353744Y-86116925D01*
X120335001Y-86355070D01*
X120335001Y-86364930D01*
X113691070Y-86364930D01*
X113718530Y-86362966D01*
X113755513Y-86360321D01*
X113764501Y-86360000D01*
X119380000Y-86360000D01*
X119380000Y-85075168D01*
X120999372Y-85075168D01*
X121003155Y-85083944D01*
X121907189Y-85987979D01*
X121921132Y-85995592D01*
X121922966Y-85995461D01*
X121929580Y-85991210D01*
X122833805Y-85086984D01*
X122840257Y-85075168D01*
X126079372Y-85075168D01*
X126083155Y-85083944D01*
X126987189Y-85987979D01*
X127001132Y-85995592D01*
X127002966Y-85995461D01*
X127009580Y-85991210D01*
X127913805Y-85086984D01*
X127920562Y-85074609D01*
X127914835Y-85066958D01*
X127723974Y-84949998D01*
X127715179Y-84945516D01*
X127494485Y-84854101D01*
X127485100Y-84851052D01*
X127252822Y-84795287D01*
X127243075Y-84793744D01*
X127004930Y-84775001D01*
X126995070Y-84775001D01*
X126756925Y-84793744D01*
X126747178Y-84795287D01*
X126514900Y-84851052D01*
X126505515Y-84854101D01*
X126284821Y-84945516D01*
X126276026Y-84949998D01*
X126088834Y-85064710D01*
X126079372Y-85075168D01*
X122840257Y-85075168D01*
X122840562Y-85074609D01*
X122834835Y-85066958D01*
X122643974Y-84949998D01*
X122635179Y-84945516D01*
X122414485Y-84854101D01*
X122405100Y-84851052D01*
X122172822Y-84795287D01*
X122163075Y-84793744D01*
X121924930Y-84775001D01*
X121915070Y-84775001D01*
X121676925Y-84793744D01*
X121667178Y-84795287D01*
X121434900Y-84851052D01*
X121425515Y-84854101D01*
X121204821Y-84945516D01*
X121196026Y-84949998D01*
X121008834Y-85064710D01*
X120999372Y-85075168D01*
X119380000Y-85075168D01*
X119380000Y-82565391D01*
X133699438Y-82565391D01*
X133705165Y-82573042D01*
X133896026Y-82690002D01*
X133904821Y-82694484D01*
X134125515Y-82785899D01*
X134134900Y-82788948D01*
X134367178Y-82844713D01*
X134376925Y-82846256D01*
X134615070Y-82864999D01*
X134624930Y-82864999D01*
X134863075Y-82846256D01*
X134872822Y-82844713D01*
X135105100Y-82788948D01*
X135114485Y-82785899D01*
X135335179Y-82694484D01*
X135343974Y-82690002D01*
X135531166Y-82575290D01*
X135540122Y-82565391D01*
X138779438Y-82565391D01*
X138785165Y-82573042D01*
X138976026Y-82690002D01*
X138984821Y-82694484D01*
X139205515Y-82785899D01*
X139214900Y-82788948D01*
X139447178Y-82844713D01*
X139456925Y-82846256D01*
X139695070Y-82864999D01*
X139704930Y-82864999D01*
X139943075Y-82846256D01*
X139952822Y-82844713D01*
X140185100Y-82788948D01*
X140194485Y-82785899D01*
X140415179Y-82694484D01*
X140423974Y-82690002D01*
X140611166Y-82575290D01*
X140620628Y-82564832D01*
X140616845Y-82556056D01*
X139712811Y-81652021D01*
X139698868Y-81644408D01*
X139697034Y-81644539D01*
X139690420Y-81648790D01*
X138786195Y-82553016D01*
X138779438Y-82565391D01*
X135540122Y-82565391D01*
X135540628Y-82564832D01*
X135536845Y-82556056D01*
X134632811Y-81652021D01*
X134618868Y-81644408D01*
X134617034Y-81644539D01*
X134610420Y-81648790D01*
X133706195Y-82553016D01*
X133699438Y-82565391D01*
X119380000Y-82565391D01*
X119380000Y-81284930D01*
X133035001Y-81284930D01*
X133053744Y-81523075D01*
X133055287Y-81532822D01*
X133111052Y-81765100D01*
X133114101Y-81774485D01*
X133205516Y-81995179D01*
X133209998Y-82003974D01*
X133324710Y-82191166D01*
X133335168Y-82200628D01*
X133343944Y-82196845D01*
X134247979Y-81292811D01*
X134254356Y-81281132D01*
X134984408Y-81281132D01*
X134984539Y-81282966D01*
X134988790Y-81289580D01*
X135893016Y-82193805D01*
X135905391Y-82200562D01*
X135913042Y-82194835D01*
X136030002Y-82003974D01*
X136034484Y-81995179D01*
X136125899Y-81774485D01*
X136128948Y-81765100D01*
X136184713Y-81532822D01*
X136186256Y-81523075D01*
X136204999Y-81284930D01*
X138115001Y-81284930D01*
X138133744Y-81523075D01*
X138135287Y-81532822D01*
X138191052Y-81765100D01*
X138194101Y-81774485D01*
X138285516Y-81995179D01*
X138289998Y-82003974D01*
X138404710Y-82191166D01*
X138415168Y-82200628D01*
X138423944Y-82196845D01*
X139327979Y-81292811D01*
X139334356Y-81281132D01*
X140064408Y-81281132D01*
X140064539Y-81282966D01*
X140068790Y-81289580D01*
X140973016Y-82193805D01*
X140985391Y-82200562D01*
X140993042Y-82194835D01*
X141110002Y-82003974D01*
X141114484Y-81995179D01*
X141205899Y-81774485D01*
X141208948Y-81765100D01*
X141264713Y-81532822D01*
X141266256Y-81523075D01*
X141284999Y-81284930D01*
X141284999Y-81275070D01*
X141266256Y-81036925D01*
X141264713Y-81027178D01*
X141208948Y-80794900D01*
X141205899Y-80785515D01*
X141114484Y-80564821D01*
X141110002Y-80556026D01*
X140995290Y-80368834D01*
X140984832Y-80359372D01*
X140976056Y-80363155D01*
X140072021Y-81267189D01*
X140064408Y-81281132D01*
X139334356Y-81281132D01*
X139335592Y-81278868D01*
X139335461Y-81277034D01*
X139331210Y-81270420D01*
X138426984Y-80366195D01*
X138414609Y-80359438D01*
X138406958Y-80365165D01*
X138289998Y-80556026D01*
X138285516Y-80564821D01*
X138194101Y-80785515D01*
X138191052Y-80794900D01*
X138135287Y-81027178D01*
X138133744Y-81036925D01*
X138115001Y-81275070D01*
X138115001Y-81284930D01*
X136204999Y-81284930D01*
X136204999Y-81275070D01*
X136186256Y-81036925D01*
X136184713Y-81027178D01*
X136128948Y-80794900D01*
X136125899Y-80785515D01*
X136034484Y-80564821D01*
X136030002Y-80556026D01*
X135915290Y-80368834D01*
X135904832Y-80359372D01*
X135896056Y-80363155D01*
X134992021Y-81267189D01*
X134984408Y-81281132D01*
X134254356Y-81281132D01*
X134255592Y-81278868D01*
X134255461Y-81277034D01*
X134251210Y-81270420D01*
X133346984Y-80366195D01*
X133334609Y-80359438D01*
X133326958Y-80365165D01*
X133209998Y-80556026D01*
X133205516Y-80564821D01*
X133114101Y-80785515D01*
X133111052Y-80794900D01*
X133055287Y-81027178D01*
X133053744Y-81036925D01*
X133035001Y-81275070D01*
X133035001Y-81284930D01*
X119380000Y-81284930D01*
X119380000Y-80744501D01*
X119380321Y-80735513D01*
X119399714Y-80464355D01*
X119402272Y-80446567D01*
X119459098Y-80185342D01*
X119464161Y-80168097D01*
X119528660Y-79995168D01*
X133699372Y-79995168D01*
X133703155Y-80003944D01*
X134607189Y-80907979D01*
X134621132Y-80915592D01*
X134622966Y-80915461D01*
X134629580Y-80911210D01*
X135533805Y-80006984D01*
X135540257Y-79995168D01*
X138779372Y-79995168D01*
X138783155Y-80003944D01*
X139687189Y-80907979D01*
X139701132Y-80915592D01*
X139702966Y-80915461D01*
X139709580Y-80911210D01*
X140613805Y-80006984D01*
X140620562Y-79994609D01*
X140614835Y-79986958D01*
X140423974Y-79869998D01*
X140415179Y-79865516D01*
X140194485Y-79774101D01*
X140185100Y-79771052D01*
X139952822Y-79715287D01*
X139943075Y-79713744D01*
X139704930Y-79695001D01*
X139695070Y-79695001D01*
X139456925Y-79713744D01*
X139447178Y-79715287D01*
X139214900Y-79771052D01*
X139205515Y-79774101D01*
X138984821Y-79865516D01*
X138976026Y-79869998D01*
X138788834Y-79984710D01*
X138779372Y-79995168D01*
X135540257Y-79995168D01*
X135540562Y-79994609D01*
X135534835Y-79986958D01*
X135343974Y-79869998D01*
X135335179Y-79865516D01*
X135114485Y-79774101D01*
X135105100Y-79771052D01*
X134872822Y-79715287D01*
X134863075Y-79713744D01*
X134624930Y-79695001D01*
X134615070Y-79695001D01*
X134376925Y-79713744D01*
X134367178Y-79715287D01*
X134134900Y-79771052D01*
X134125515Y-79774101D01*
X133904821Y-79865516D01*
X133896026Y-79869998D01*
X133708834Y-79984710D01*
X133699372Y-79995168D01*
X119528660Y-79995168D01*
X119557589Y-79917607D01*
X119565055Y-79901260D01*
X119582126Y-79869998D01*
X119677681Y-79695001D01*
X119693176Y-79666625D01*
X119702895Y-79651502D01*
X119863103Y-79437490D01*
X119874876Y-79423904D01*
X120063904Y-79234876D01*
X120077490Y-79223103D01*
X120291502Y-79062895D01*
X120306625Y-79053176D01*
X120541260Y-78925055D01*
X120557607Y-78917589D01*
X120808100Y-78824160D01*
X120825342Y-78819098D01*
X121086567Y-78762272D01*
X121104350Y-78759715D01*
X121326129Y-78743853D01*
X121375513Y-78740321D01*
X121384501Y-78740000D01*
X155475499Y-78740000D01*
X155484487Y-78740321D01*
G37*
G04 #@! TD.AperFunction*
M02*
