%TF.GenerationSoftware,KiCad,Pcbnew,(6.0.9)*%
%TF.CreationDate,2022-12-20T19:21:58-08:00*%
%TF.ProjectId,light_distribution,6c696768-745f-4646-9973-747269627574,rev?*%
%TF.SameCoordinates,Original*%
%TF.FileFunction,Drillmap*%
%TF.FilePolarity,Positive*%
%FSLAX45Y45*%
G04 Gerber Fmt 4.5, Leading zero omitted, Abs format (unit mm)*
G04 Created by KiCad (PCBNEW (6.0.9)) date 2022-12-20 19:21:58*
%MOMM*%
%LPD*%
G01*
G04 APERTURE LIST*
%ADD10C,0.100000*%
%ADD11C,0.200000*%
%ADD12C,0.143000*%
G04 APERTURE END LIST*
D10*
X10922000Y-7620000D02*
X16764000Y-7620000D01*
X16764000Y-7620000D02*
X16764000Y-11938000D01*
X16764000Y-11938000D02*
X10922000Y-11938000D01*
X10922000Y-11938000D02*
X10922000Y-7620000D01*
D11*
D12*
X12120500Y-8564500D02*
X12263500Y-8707500D01*
X12263500Y-8564500D02*
X12120500Y-8707500D01*
X12120500Y-9580500D02*
X12263500Y-9723500D01*
X12263500Y-9580500D02*
X12120500Y-9723500D01*
X12120500Y-10596500D02*
X12263500Y-10739500D01*
X12263500Y-10596500D02*
X12120500Y-10739500D01*
X12628500Y-8564500D02*
X12771500Y-8707500D01*
X12771500Y-8564500D02*
X12628500Y-8707500D01*
X12628500Y-9580500D02*
X12771500Y-9723500D01*
X12771500Y-9580500D02*
X12628500Y-9723500D01*
X12628500Y-10596500D02*
X12771500Y-10739500D01*
X12771500Y-10596500D02*
X12628500Y-10739500D01*
X13390500Y-8056500D02*
X13533500Y-8199500D01*
X13533500Y-8056500D02*
X13390500Y-8199500D01*
X13390500Y-9072500D02*
X13533500Y-9215500D01*
X13533500Y-9072500D02*
X13390500Y-9215500D01*
X13390500Y-10088500D02*
X13533500Y-10231500D01*
X13533500Y-10088500D02*
X13390500Y-10231500D01*
X13390500Y-11104500D02*
X13533500Y-11247500D01*
X13533500Y-11104500D02*
X13390500Y-11247500D01*
X13898500Y-8056500D02*
X14041500Y-8199500D01*
X14041500Y-8056500D02*
X13898500Y-8199500D01*
X13898500Y-9072500D02*
X14041500Y-9215500D01*
X14041500Y-9072500D02*
X13898500Y-9215500D01*
X13898500Y-10088500D02*
X14041500Y-10231500D01*
X14041500Y-10088500D02*
X13898500Y-10231500D01*
X13898500Y-11104500D02*
X14041500Y-11247500D01*
X14041500Y-11104500D02*
X13898500Y-11247500D01*
X16184500Y-9326500D02*
X16327500Y-9469500D01*
X16327500Y-9326500D02*
X16184500Y-9469500D01*
X16184500Y-9834500D02*
X16327500Y-9977500D01*
X16327500Y-9834500D02*
X16184500Y-9977500D01*
D11*
X11174619Y-12253476D02*
X11174619Y-12053476D01*
X11222238Y-12053476D01*
X11250809Y-12063000D01*
X11269857Y-12082048D01*
X11279381Y-12101095D01*
X11288905Y-12139190D01*
X11288905Y-12167762D01*
X11279381Y-12205857D01*
X11269857Y-12224905D01*
X11250809Y-12243952D01*
X11222238Y-12253476D01*
X11174619Y-12253476D01*
X11374619Y-12253476D02*
X11374619Y-12120143D01*
X11374619Y-12158238D02*
X11384143Y-12139190D01*
X11393667Y-12129667D01*
X11412714Y-12120143D01*
X11431762Y-12120143D01*
X11498428Y-12253476D02*
X11498428Y-12120143D01*
X11498428Y-12053476D02*
X11488905Y-12063000D01*
X11498428Y-12072524D01*
X11507952Y-12063000D01*
X11498428Y-12053476D01*
X11498428Y-12072524D01*
X11622238Y-12253476D02*
X11603190Y-12243952D01*
X11593667Y-12224905D01*
X11593667Y-12053476D01*
X11727000Y-12253476D02*
X11707952Y-12243952D01*
X11698428Y-12224905D01*
X11698428Y-12053476D01*
X11955571Y-12253476D02*
X11955571Y-12053476D01*
X12022238Y-12196333D01*
X12088905Y-12053476D01*
X12088905Y-12253476D01*
X12269857Y-12253476D02*
X12269857Y-12148714D01*
X12260333Y-12129667D01*
X12241286Y-12120143D01*
X12203190Y-12120143D01*
X12184143Y-12129667D01*
X12269857Y-12243952D02*
X12250809Y-12253476D01*
X12203190Y-12253476D01*
X12184143Y-12243952D01*
X12174619Y-12224905D01*
X12174619Y-12205857D01*
X12184143Y-12186809D01*
X12203190Y-12177286D01*
X12250809Y-12177286D01*
X12269857Y-12167762D01*
X12365095Y-12120143D02*
X12365095Y-12320143D01*
X12365095Y-12129667D02*
X12384143Y-12120143D01*
X12422238Y-12120143D01*
X12441286Y-12129667D01*
X12450809Y-12139190D01*
X12460333Y-12158238D01*
X12460333Y-12215381D01*
X12450809Y-12234428D01*
X12441286Y-12243952D01*
X12422238Y-12253476D01*
X12384143Y-12253476D01*
X12365095Y-12243952D01*
X12546048Y-12234428D02*
X12555571Y-12243952D01*
X12546048Y-12253476D01*
X12536524Y-12243952D01*
X12546048Y-12234428D01*
X12546048Y-12253476D01*
X12546048Y-12129667D02*
X12555571Y-12139190D01*
X12546048Y-12148714D01*
X12536524Y-12139190D01*
X12546048Y-12129667D01*
X12546048Y-12148714D01*
D12*
X10774000Y-12511500D02*
X10917000Y-12654500D01*
X10917000Y-12511500D02*
X10774000Y-12654500D01*
D11*
X11279381Y-12673476D02*
X11165095Y-12673476D01*
X11222238Y-12673476D02*
X11222238Y-12473476D01*
X11203190Y-12502048D01*
X11184143Y-12521095D01*
X11165095Y-12530619D01*
X11365095Y-12654428D02*
X11374619Y-12663952D01*
X11365095Y-12673476D01*
X11355571Y-12663952D01*
X11365095Y-12654428D01*
X11365095Y-12673476D01*
X11546048Y-12540143D02*
X11546048Y-12673476D01*
X11498428Y-12463952D02*
X11450809Y-12606809D01*
X11574619Y-12606809D01*
X11631762Y-12473476D02*
X11755571Y-12473476D01*
X11688905Y-12549667D01*
X11717476Y-12549667D01*
X11736524Y-12559190D01*
X11746048Y-12568714D01*
X11755571Y-12587762D01*
X11755571Y-12635381D01*
X11746048Y-12654428D01*
X11736524Y-12663952D01*
X11717476Y-12673476D01*
X11660333Y-12673476D01*
X11641286Y-12663952D01*
X11631762Y-12654428D01*
X11879381Y-12473476D02*
X11898428Y-12473476D01*
X11917476Y-12483000D01*
X11927000Y-12492524D01*
X11936524Y-12511571D01*
X11946048Y-12549667D01*
X11946048Y-12597286D01*
X11936524Y-12635381D01*
X11927000Y-12654428D01*
X11917476Y-12663952D01*
X11898428Y-12673476D01*
X11879381Y-12673476D01*
X11860333Y-12663952D01*
X11850809Y-12654428D01*
X11841286Y-12635381D01*
X11831762Y-12597286D01*
X11831762Y-12549667D01*
X11841286Y-12511571D01*
X11850809Y-12492524D01*
X11860333Y-12483000D01*
X11879381Y-12473476D01*
X12031762Y-12673476D02*
X12031762Y-12540143D01*
X12031762Y-12559190D02*
X12041286Y-12549667D01*
X12060333Y-12540143D01*
X12088905Y-12540143D01*
X12107952Y-12549667D01*
X12117476Y-12568714D01*
X12117476Y-12673476D01*
X12117476Y-12568714D02*
X12127000Y-12549667D01*
X12146048Y-12540143D01*
X12174619Y-12540143D01*
X12193667Y-12549667D01*
X12203190Y-12568714D01*
X12203190Y-12673476D01*
X12298428Y-12673476D02*
X12298428Y-12540143D01*
X12298428Y-12559190D02*
X12307952Y-12549667D01*
X12327000Y-12540143D01*
X12355571Y-12540143D01*
X12374619Y-12549667D01*
X12384143Y-12568714D01*
X12384143Y-12673476D01*
X12384143Y-12568714D02*
X12393667Y-12549667D01*
X12412714Y-12540143D01*
X12441286Y-12540143D01*
X12460333Y-12549667D01*
X12469857Y-12568714D01*
X12469857Y-12673476D01*
X12860333Y-12463952D02*
X12688905Y-12721095D01*
X13117476Y-12473476D02*
X13136524Y-12473476D01*
X13155571Y-12483000D01*
X13165095Y-12492524D01*
X13174619Y-12511571D01*
X13184143Y-12549667D01*
X13184143Y-12597286D01*
X13174619Y-12635381D01*
X13165095Y-12654428D01*
X13155571Y-12663952D01*
X13136524Y-12673476D01*
X13117476Y-12673476D01*
X13098428Y-12663952D01*
X13088905Y-12654428D01*
X13079381Y-12635381D01*
X13069857Y-12597286D01*
X13069857Y-12549667D01*
X13079381Y-12511571D01*
X13088905Y-12492524D01*
X13098428Y-12483000D01*
X13117476Y-12473476D01*
X13269857Y-12654428D02*
X13279381Y-12663952D01*
X13269857Y-12673476D01*
X13260333Y-12663952D01*
X13269857Y-12654428D01*
X13269857Y-12673476D01*
X13403190Y-12473476D02*
X13422238Y-12473476D01*
X13441286Y-12483000D01*
X13450809Y-12492524D01*
X13460333Y-12511571D01*
X13469857Y-12549667D01*
X13469857Y-12597286D01*
X13460333Y-12635381D01*
X13450809Y-12654428D01*
X13441286Y-12663952D01*
X13422238Y-12673476D01*
X13403190Y-12673476D01*
X13384143Y-12663952D01*
X13374619Y-12654428D01*
X13365095Y-12635381D01*
X13355571Y-12597286D01*
X13355571Y-12549667D01*
X13365095Y-12511571D01*
X13374619Y-12492524D01*
X13384143Y-12483000D01*
X13403190Y-12473476D01*
X13650809Y-12473476D02*
X13555571Y-12473476D01*
X13546048Y-12568714D01*
X13555571Y-12559190D01*
X13574619Y-12549667D01*
X13622238Y-12549667D01*
X13641286Y-12559190D01*
X13650809Y-12568714D01*
X13660333Y-12587762D01*
X13660333Y-12635381D01*
X13650809Y-12654428D01*
X13641286Y-12663952D01*
X13622238Y-12673476D01*
X13574619Y-12673476D01*
X13555571Y-12663952D01*
X13546048Y-12654428D01*
X13831762Y-12473476D02*
X13793667Y-12473476D01*
X13774619Y-12483000D01*
X13765095Y-12492524D01*
X13746048Y-12521095D01*
X13736524Y-12559190D01*
X13736524Y-12635381D01*
X13746048Y-12654428D01*
X13755571Y-12663952D01*
X13774619Y-12673476D01*
X13812714Y-12673476D01*
X13831762Y-12663952D01*
X13841286Y-12654428D01*
X13850809Y-12635381D01*
X13850809Y-12587762D01*
X13841286Y-12568714D01*
X13831762Y-12559190D01*
X13812714Y-12549667D01*
X13774619Y-12549667D01*
X13755571Y-12559190D01*
X13746048Y-12568714D01*
X13736524Y-12587762D01*
X13917476Y-12473476D02*
X14041286Y-12473476D01*
X13974619Y-12549667D01*
X14003190Y-12549667D01*
X14022238Y-12559190D01*
X14031762Y-12568714D01*
X14041286Y-12587762D01*
X14041286Y-12635381D01*
X14031762Y-12654428D01*
X14022238Y-12663952D01*
X14003190Y-12673476D01*
X13946048Y-12673476D01*
X13927000Y-12663952D01*
X13917476Y-12654428D01*
X14117476Y-12473476D02*
X14117476Y-12511571D01*
X14193667Y-12473476D02*
X14193667Y-12511571D01*
X14488905Y-12749667D02*
X14479381Y-12740143D01*
X14460333Y-12711571D01*
X14450809Y-12692524D01*
X14441286Y-12663952D01*
X14431762Y-12616333D01*
X14431762Y-12578238D01*
X14441286Y-12530619D01*
X14450809Y-12502048D01*
X14460333Y-12483000D01*
X14479381Y-12454428D01*
X14488905Y-12444905D01*
X14669857Y-12673476D02*
X14555571Y-12673476D01*
X14612714Y-12673476D02*
X14612714Y-12473476D01*
X14593667Y-12502048D01*
X14574619Y-12521095D01*
X14555571Y-12530619D01*
X14841286Y-12473476D02*
X14803190Y-12473476D01*
X14784143Y-12483000D01*
X14774619Y-12492524D01*
X14755571Y-12521095D01*
X14746048Y-12559190D01*
X14746048Y-12635381D01*
X14755571Y-12654428D01*
X14765095Y-12663952D01*
X14784143Y-12673476D01*
X14822238Y-12673476D01*
X14841286Y-12663952D01*
X14850809Y-12654428D01*
X14860333Y-12635381D01*
X14860333Y-12587762D01*
X14850809Y-12568714D01*
X14841286Y-12559190D01*
X14822238Y-12549667D01*
X14784143Y-12549667D01*
X14765095Y-12559190D01*
X14755571Y-12568714D01*
X14746048Y-12587762D01*
X15098428Y-12673476D02*
X15098428Y-12473476D01*
X15184143Y-12673476D02*
X15184143Y-12568714D01*
X15174619Y-12549667D01*
X15155571Y-12540143D01*
X15127000Y-12540143D01*
X15107952Y-12549667D01*
X15098428Y-12559190D01*
X15307952Y-12673476D02*
X15288905Y-12663952D01*
X15279381Y-12654428D01*
X15269857Y-12635381D01*
X15269857Y-12578238D01*
X15279381Y-12559190D01*
X15288905Y-12549667D01*
X15307952Y-12540143D01*
X15336524Y-12540143D01*
X15355571Y-12549667D01*
X15365095Y-12559190D01*
X15374619Y-12578238D01*
X15374619Y-12635381D01*
X15365095Y-12654428D01*
X15355571Y-12663952D01*
X15336524Y-12673476D01*
X15307952Y-12673476D01*
X15488905Y-12673476D02*
X15469857Y-12663952D01*
X15460333Y-12644905D01*
X15460333Y-12473476D01*
X15641286Y-12663952D02*
X15622238Y-12673476D01*
X15584143Y-12673476D01*
X15565095Y-12663952D01*
X15555571Y-12644905D01*
X15555571Y-12568714D01*
X15565095Y-12549667D01*
X15584143Y-12540143D01*
X15622238Y-12540143D01*
X15641286Y-12549667D01*
X15650809Y-12568714D01*
X15650809Y-12587762D01*
X15555571Y-12606809D01*
X15727000Y-12663952D02*
X15746048Y-12673476D01*
X15784143Y-12673476D01*
X15803190Y-12663952D01*
X15812714Y-12644905D01*
X15812714Y-12635381D01*
X15803190Y-12616333D01*
X15784143Y-12606809D01*
X15755571Y-12606809D01*
X15736524Y-12597286D01*
X15727000Y-12578238D01*
X15727000Y-12568714D01*
X15736524Y-12549667D01*
X15755571Y-12540143D01*
X15784143Y-12540143D01*
X15803190Y-12549667D01*
X15879381Y-12749667D02*
X15888905Y-12740143D01*
X15907952Y-12711571D01*
X15917476Y-12692524D01*
X15927000Y-12663952D01*
X15936524Y-12616333D01*
X15936524Y-12578238D01*
X15927000Y-12530619D01*
X15917476Y-12502048D01*
X15907952Y-12483000D01*
X15888905Y-12454428D01*
X15879381Y-12444905D01*
M02*
